<!-- https://publicdomainvectors.org/en/free-clipart/Rubber-duck/37850.html -->
<svg viewBox="0 0 410.84 399.23" xmlns="http://www.w3.org/2000/svg" xmlns:xlink="http://www.w3.org/1999/xlink"><filter id="a" color-interpolation-filters="sRGB" height="1.4818" width="1.1392" x="-.069603" y="-.24089"><feGaussianBlur stdDeviation="1.424123"/></filter><filter id="b" color-interpolation-filters="sRGB" height="1.576" width="1.192" x="-.096" y="-.288"><feGaussianBlur stdDeviation="1.9401896"/></filter><filter id="c" color-interpolation-filters="sRGB" height="1.5984" width="1.2336" x="-.11679" y="-.2992"><feGaussianBlur stdDeviation="1.7588669"/></filter><filter id="d" color-interpolation-filters="sRGB" height="1.7961" width="1.2743" x="-.13714" y="-.39807"><feGaussianBlur stdDeviation="10.448787"/></filter><filter id="e" color-interpolation-filters="sRGB" height="2.2804" width="2.0179" x="-.50896" y="-.6402"><feGaussianBlur stdDeviation="14.067819"/></filter><filter id="f" color-interpolation-filters="sRGB" height="1.4427" width="1.339" x="-.16951" y="-.22136"><feGaussianBlur stdDeviation="4.6525483"/></filter><filter id="g" color-interpolation-filters="sRGB" height="1.2847" width="1.211" x="-.10552" y="-.14235"><feGaussianBlur stdDeviation="3.3662368"/></filter><filter id="h" color-interpolation-filters="sRGB" height="2.7124" width="1.2574" x="-.12869" y="-.85618"><feGaussianBlur stdDeviation="2.4925109"/></filter><filter id="i" color-interpolation-filters="sRGB" height="2.174" width="1.3395" x="-.16975" y="-.58701"><feGaussianBlur stdDeviation="2.4925109"/></filter><filter id="j" color-interpolation-filters="sRGB" height="1.5802" width="1.115" x="-.057517" y="-.2901"><feGaussianBlur stdDeviation="2.4014337"/></filter><filter id="k" color-interpolation-filters="sRGB" height="1.6882" width="1.1116" x="-.055781" y="-.3441"><feGaussianBlur stdDeviation="7.0859333"/></filter><filter id="l" color-interpolation-filters="sRGB" height="1.3075" width="1.1968" x="-.098401" y="-.15375"><feGaussianBlur stdDeviation="4.9559183"/></filter><g transform="translate(-150.92 -235.24)"><path d="m182.59 398.29c10.481-1.7967 25.254 16.92 29.294 23.234 4.0406 6.3134 18.183 25.506 31.062 24.496 7.3055-.57298 27.762-6.4632 40.659-7.8287 21.466-2.2728 41.416-.25253 46.72-8.0812 5.3033-7.8287 6.8185-6.566-11.364-26.769-18.183-20.203-23.474-42.931-23.486-54.801-.0428-41.599 16.68-69.504 37.376-83.085 33.796-22.177 58.589-25.759 69.195-27.779 10.607-2.0203 20.708-1.0102 26.517 5.3033 5.8084 6.3135 6.566 10.354 8.8388 13.637s14.395 9.0914 23.486 22.728c9.0914 13.637 10.859 25.506 18.435 28.789 15.493 5.0268 47.642.30453 28.979 36.618 0 3.283 25.317 8.8388 30.368 11.617 5.0508 2.7779 8.0812 6.0609 4.2931 9.5964s-12.879 4.5457-19.193 6.8185c-6.3135 2.2728-21.213 7.8287-28.032 10.859-6.8185 3.0304-21.718 5.3033-22.476 19.193-.75762 13.89 5.8084 16.415 10.354 20.456l4.5457 4.0406s33.84 30.305 47.477 44.952 27.779 42.174 23.991 74.751c-2.6279 22.6-10.607 31.567-21.971 47.225-11.364 15.657-22.223 22.223-33.588 28.032-11.364 5.8084-57.326 11.364-103.04 10.607-45.709-.75762-131.07-14.647-146.98-18.688-15.91-4.0406-31.315-9.5964-33.588-14.647-2.2728-5.0508-4.0406-5.0508-14.142-13.385-10.102-8.3338-29.042-24.496-37.628-44.194-8.5863-19.698-19.445-41.416-15.405-68.69 4.0406-27.274 9.5879-43.16 12.122-50.255 2.5254-7.0711 9.852-23.494 17.173-24.749z" fill="#fc0"/><path d="m539.16 298.53c-4.22.22474-13.386 3.8322-24.75 8.0938-7.8794 2.9548-17.117 4.0588-24.719 3.5938-10.727 21.226-12.059 34.17-10.875 38.312 1.0989 3.8462 14.154 19.801 29.625 30 5.8728-2.261 11.853-4.5047 15.312-5.75 6.3134-2.2728 15.431-3.277 19.219-6.8125 3.7881-3.5355.73826-6.8158-4.3125-9.5938-5.0508-2.7779-23.411-7.9791-21.147-10.356 1.2627-1.3258 4.0647-2.0174 15.085-13.894 10.359-11.164 9.8522-14.658 12.125-20.719 2.2728-6.0609-.99318-12.622-4.7812-12.875-.23676-.0158-.49992-.015-.78125 0z" fill="#d45500"/><path d="m539.16 298.53c-4.22.22474-13.386 3.8322-24.75 8.0938-7.8794 2.9548-17.117 4.0588-24.719 3.5938-10.727 21.226-12.059 34.17-10.875 38.312 8.1384 7.1457 35.451 3.2487 44.134-6.8653 2.2867-2.5342 5.9095-5.3852 9.6471-9.5409 9.9868-11.104 10.924-15.997 12.125-20.719 1.5962-6.2732-.99318-12.622-4.7812-12.875-.23676-.0158-.49992-.015-.78125 0z" fill="#f60"/><path d="m438.41 271.01c7.067-.58773 8.5863-.44632 14.395 6.0609 6.0936 6.8268 16.668 25.001 16.668 28.789 0 3.7881-.75762 8.0812-7.5762 3.283-6.8185-4.7982-18.183-19.193-24.244-24.496-6.0609-5.3033-3.8693-13.252.75762-13.637z" fill="#fff" stroke="#000"/><path d="m452.8 287.42c2.2728-2.2728 4.2932-1.2627 7.3236 3.283 3.0305 4.5457 6.3135 9.5964 6.3135 12.627 0 3.0305-3.7881 1.7678-5.3033.25254-1.5152-1.5152-7.8287-10.354-8.5863-11.869-.75761-1.5152-.50508-3.0305.25254-4.2932z"/><path d="m434.11 587.19c-15.91 21.718-37.628 30.81-64.65 31.567-27.022.75761-77.683-13.967-92.681-21.466-15.657-7.8287-24.244-17.425-27.779-25.001-3.5355-7.5761-4.2932-22.728-4.2932-22.728s-17.173-16.415-17.678-29.8c-.50507-13.385 1.2627-28.537 6.8185-33.335 5.5558-4.7982 32.577-1.0102 39.648 1.0102 7.0711 2.0203 5.8084 1.5152 14.142 5.3033-1.5152-7.8287-4.7982-12.374 4.7982-16.162 9.5964-3.7881 34.093-2.7779 48.74-.75762s74.762 24.191 91.671 34.345c18.67 11.211 10.56 70.961 1.2627 77.024z" fill="#fc0"/><path d="m292.19 565.22c-41.669-11.364-48.74-16.415-52.275-20.203-3.5355-3.7881-13.385-19.445-12.627-26.769.75762-7.3236 2.5254-1.7678 6.0609 4.7982s5.0508 17.425 22.476 23.486c17.425 6.0609 32.325 8.5863 35.608 12.627 3.283 4.0406.75761 6.0609.75761 6.0609z" fill="#d4aa00" filter="url(#f)"/><path d="m392.19 510.16c17.425 4.5457 25.506 14.142 26.769 24.496 1.2627 10.354-16.162 24.244-29.294 27.274-13.132 3.0304-26.264-3.7881-31.82-14.395-5.5558-10.607-8.0812-24.244 0-31.82 8.0812-7.5762 34.345-5.5558 34.345-5.5558z" fill="#f03636" filter="url(#e)" opacity=".5279"/><path d="m249.26 488.95c19.445 4.7982 26.264 8.8388 31.567 6.8185 5.3033-2.0203-6.566-6.566-6.566-6.566s-9.6004-2.7945-16.668-3.0304c-16.354-.54607-9.2258 2.7254-8.3338 2.7779z" fill="#fea" filter="url(#i)"/><path d="m313.15 479.35c5.9346.25254 22.728 1.6415 26.769 1.1364 4.0406-.50508-9.7227-3.4093-21.087-4.1669-11.364-.75761-19.319-1.2627-25.128 1.7678-4.1963 2.1894-12.635 7.4967-11.277 14.85 3.6584-3.2039 9.0894-8.7888 13.802-10.557 5.6748-2.1287 12.753-3.0304 16.92-3.0304z" fill="#fea" filter="url(#h)"/><path d="m321.99 609.92c-41.669-11.364-60.357-22.728-63.892-26.516-3.5355-3.7881-13.385-19.445-12.627-26.769.75762-7.3236 2.5254-1.7678 6.0609 4.7982s1.5996 10.392 16.162 21.718c6.8185 5.3033 16.92 10.102 26.011 12.627 5.0163 1.3934 28.284 14.142 28.284 14.142z" fill="#d4aa00" filter="url(#g)"/><path d="m536.96 300.31c-8.193.87228-16.04 5.7083-22.968 8.1144-5.2514 1.2583-10.451 2.8093-15.798 3.6229-2.7481.25477-5.4758-.96536-8.2051-.51924-.18298 1.7851 2.6525 2.5494 4.1508 2.8278 4.6548.6501 9.1628-1.1278 13.561-2.4019 6.8529-2.19 13.603-4.7105 20.162-7.6681 2.7909-1.0593 5.6136-2.4336 8.6503-2.458.95428.42688 3.9333-.37718 1.8478-1.2444-.44326-.17227-.92151-.30202-1.4014-.27344z" fill="#fff" filter="url(#a)"/><path d="m480.09 347.81c5.5357 1.6964 13.151 3.1709 18.393 2.5893 6.7402-.74782 16.636-5.4656 21.696-8.8393 1.875-1.25 16.875-13.482 12.143-8.125-12.509 12.19-17.444 15.117-29.911 18.304-5.625 1.0714-11.407 1.3537-16.786.17857-7.7217-1.6872-7.5924-3.5714-5.5357-4.1072z" filter="url(#b)"/><path d="m542.95 362.36c-.98215 3.125-9.3039 4.543-18.571 6.9643-9.9107 2.5893-12.411 4.7321-17.321 6.1607-.26786 1.6071.71428 1.6071 1.6964 1.3393.98214-.26786 13.839-5.3571 16.518-6.1607 2.6786-.80358 11.079-2.7723 13.304-3.6607 5.4136-2.1617 6.7911-5.4482 4.375-4.6428z" filter="url(#c)"/><path d="m506.79 377.72c-21.053 5.1659-38.482 7.8571-42.053 15-3.5714 7.1429.77555 14.163-7.2326 17.143-17.38 6.4667-43.571 17.5-63.214 19.286-19.643 1.7857-42.143 3.2143-49.643-1.0714s-20.714-21.071-20.714-25c0-3.9286 20.189-6.4402 42.5.35715 29.703 9.0493 59.022-4.0988 76.071-12.143 17.164-8.0984 25.714-17.857 35.714-20.714 10-2.8572 21.071-3.9286 24.286-.71429 3.2143 3.2143 4.2857 7.8571 4.2857 7.8571z" fill="#d4aa00" filter="url(#d)"/><path d="m325.4 436.93c-7.5762 2.6516-19.698 3.283-26.895 3.6618-7.1973.37881-19.951 1.0102-31.188 3.5355-11.238 2.5254-17.93 3.9143-22.981 4.9245-5.0508 1.0102-5.3033 1.0102-5.3033 1.0102s-9.3439-2.3991-4.1669 0 18.94-.50508 23.865-1.0102c4.9245-.50508 19.951-5.3033 34.093-5.5558 14.142-.25254 26.674-1.6062 29.294-2.1466 6.6428-1.3698 11.22-8.6234 11.386-9.988.18631-1.5319-5.9238 5.102-8.1029 5.5686z" fill="#fff" filter="url(#j)"/><path d="m204.38 579.53c7.2108 5.9348 15.71 11.005 20.688 19.156 8.5543 6.7601 19.98 8.4185 30.192 11.542 33.89 7.6495 68.659 11.618 103.13 15.778 43.706 4.562 88.239 4.1712 131.49-3.633 6.8051-1.4936 13.482-3.645 19.375-7.4375-18.76 5.4403-37.973 9.1456-57.562 9.2812-31.286.89508-62.586-1.0971-93.839-1.9441-41.154-4.0069-81.958-13.195-120.69-27.337-10.985-4.6875-21.576-12.832-32.781-15.406z" filter="url(#k)" stroke="#000"/><path d="m408.61 240.75c-30.686 3.3322-59.166 15.713-82.922 35.594-11.543 11.202-19.099 26.249-22.812 41.75 8.7473-17.357 23.465-30.802 37.197-44.23 13.46-8.2876 23.545-16.127 36.96-20.372 15.524-5.1489 30.401-8.661 46.718-9.4297-3.8949-2.8579-10.407-3.4485-15.14-3.3125z" fill="#fff" filter="url(#l)"/><path d="m261.25 7.9062c-3.1003-.029903-6.3729.30616-9.6875.9375-10.607 2.0203-35.392 5.6039-69.188 27.781-20.695 13.581-37.418 41.464-37.375 83.062.0122 11.869 5.3172 34.609 23.5 54.812s16.647 18.953 11.344 26.781c-5.3033 7.8287-25.253 5.7897-46.719 8.0625-12.896 1.3655-33.351 7.2708-40.656 7.8438-12.879 1.0102-27.022-18.187-31.062-24.5-4.0406-6.3135-18.801-25.047-29.281-23.25-7.3206 1.255-14.662 17.679-17.188 24.75-2.534 7.095-8.0844 23.007-12.125 50.281s6.82 48.99 15.406 68.688c8.5863 19.698 27.523 35.854 37.625 44.188 10.102 8.3338 11.883 8.3242 14.156 13.375 2.2728 5.0508 17.684 10.616 33.594 14.656 15.91 4.0406 101.26 17.93 146.97 18.688 45.709.75761 91.667-4.8166 103.03-10.625 11.364-5.8084 22.23-12.374 33.594-28.031s19.341-24.619 21.969-47.219c3.7881-32.577-10.363-60.103-24-74.75-13.64-14.64-47.47-44.93-47.47-44.93l-4.5312-4.0625c-4.5457-4.0406-11.133-6.5479-10.375-20.438.75761-13.89 15.65-16.157 22.469-19.188 3.0827-1.3701 7.8727-3.2593 12.719-5.125 3.2348-1.2454 6.3892-2.4291 9.25-3.5 2.3804-.88382 4.4864-1.6825 6.0625-2.25.78918-.28411 1.6391-.52937 2.5-.78125.85083-.2493 1.7354-.51767 2.625-.75 1.8018-.469 3.6665-.91771 5.4375-1.4062 3.5355-.97859 6.7622-2.1072 8.6562-3.875.23676-.22097.44034-.43731.625-.65625.36903-.43783.63826-.88361.8125-1.3125.4338-1.0636.27902-2.0953-.28125-3.0938-.004-.007.004-.0242 0-.0312-.22515-.39596-.52511-.77222-.875-1.1562-.005-.005.005-.0261 0-.0312-.71978-.78531-1.6855-1.5207-2.8125-2.25-.55937-.36246-1.1499-.71526-1.7812-1.0625-.29852-.16419-.66305-.3487-1.0938-.53125-.0195-.009-.0428-.0221-.0625-.0312-.0189-.008-.0434-.0233-.0625-.0312-6.2542-2.8739-22.047-7.5354-19.938-9.75 1.6542-.96766 3.1245-2.0552 4.3438-3.2188 3.0269-2.3498 6.3311-5.3428 10.469-9.375 1.3885-1.5719 1.0542-1.6101-.125-.875.1353-.14745.27059-.28666.40625-.4375 4.7503-5.1193 7.1912-8.6193 8.6875-11.5.1191-.2111.20264-.42055.3125-.625.0254-.05215.0689-.10448.0937-.15625 1.8204-3.4324 2.4023-5.9656 3.0312-8.4375 1.8546-4.9456.0144-10.212-2.7812-12.125-.2021-.14511-.40989-.26998-.625-.375-.23314-.11226-.446-.18594-.6875-.25-.22666-.06191-.45075-.10922-.6875-.125-.23676-.0158-.49992-.015-.78125 0-4.22.22474-13.386 3.8322-24.75 8.0938-7.8794 2.9548-17.117 4.0588-24.719 3.5938-.0217.04293-.0409.08214-.0625.125-3.7325-.60693-7.3323-1.2518-10.312-2.2188-7.58-3.262-9.35-15.123-18.44-28.76-9.1-13.637-21.2-19.436-23.47-22.719-2.28-3.283-3.04-7.343-8.85-13.656-3.99-4.3405-10.02-6.153-16.84-6.2188z" fill="none" stroke="#000" stroke-width="3" transform="translate(150.47 228.84)"/></g></svg>