<!-- https://publicdomainvectors.org/en/free-clipart/Pig-cartoon-style/48171.html -->
<svg height="273.974" viewBox="0 0 250.76948 273.974" width="250.76947" xmlns="http://www.w3.org/2000/svg"><g transform="translate(-200.07418 -357.04769)"><path d="m403.52 522.31a67.988 67.988 0 1 1 -135.97 0 67.988 67.988 0 1 1 135.97 0z" fill="#ff8080" stroke="#000" stroke-linecap="round" stroke-linejoin="round" stroke-width="2.2041" transform="matrix(1.8148 0 0 1.8148 -283.47 -459.58)"/><path d="m403.52 522.31a67.988 67.988 0 1 1 -135.97 0 67.988 67.988 0 1 1 135.97 0z" fill-opacity=".31373" transform="matrix(1.403 0 0 1.403 -140.29 -263.97)"/><path d="m434.03 429.69c3.2 10.97 4.91 22.59 4.91 34.59 0 68.11-55.27 123.38-123.38 123.38-46.82 0-87.6-26.14-108.5-64.6 15.03 51.2 62.37 88.63 118.41 88.63 68.11 0 123.37-55.27 123.37-123.38 0-21.21-5.37-41.18-14.81-58.62z" fill-opacity=".31373"/><g stroke="#000" stroke-linecap="round"><g stroke-width="4"><path d="m409.5 608.24c0 21.54-17.48 20.77-39.03 20.77-21.54 0-39.03.77-39.03-20.77 0-21.55 17.49-39.03 39.03-39.03 21.55 0 39.03 17.48 39.03 39.03z" fill="#faa" stroke-linejoin="round"/><path d="m319.48 608.24c0 21.54-17.48 20.77-39.03 20.77-11.98 0-22.7.24-29.86-3.25-5.72-2.79-9.17-7.96-9.17-17.52 0-21.55 17.49-39.03 39.03-39.03 21.55 0 39.03 17.48 39.03 39.03z" fill="#faa" stroke-linejoin="round"/><g fill="none" transform="matrix(-1 0 0 1 652.15 -2.8284)"><path d="m357.34 628.69c-3.5-11.33.5-24.55.5-24.55"/><path d="m375.37 631.21c4.29-18.25-.62-32.73-.62-32.73"/><path d="m393.62 629.32c8.81-13.85 1.26-25.18 1.26-25.18"/></g></g><path d="m393.68 385.56c23.547-10.681 20.574-22.937 30.291-24.158 0 0 19.749 33.401 6.9264 54.008-7.5506 12.135-14.071 9.9946-14.071 9.9946" fill="#ff8080" stroke-linejoin="round" stroke-width="3.876"/><path d="m255.41 387.99c-23.547-10.681-20.574-22.937-30.291-24.158 0 0-19.749 33.401-6.9264 54.008 7.5506 12.135 14.071 9.9946 14.071 9.9946" fill="#ff8080" stroke-linejoin="round" stroke-width="3.876"/><path d="m403.52 522.31a67.988 67.988 0 1 1 -135.97 0 67.988 67.988 0 1 1 135.97 0z" fill="#faa" stroke-linejoin="round" stroke-width="2.8511" transform="matrix(1.403 0 0 1.403 -145.29 -277.47)"/></g><path d="m233.44 117.75c1.52 6.77 2.34 13.8 2.34 21.03 0 52.65-42.75 95.41-95.4 95.41-38.78 0-72.158-23.19-87.068-56.44 9.556 42.59 47.608 74.44 93.068 74.44 52.65 0 95.4-42.76 95.4-95.41 0-13.91-2.98-27.11-8.34-39.03z" fill-opacity=".31373" transform="translate(179.08 298.51)"/><path d="m403.52 522.31a67.988 67.988 0 1 1 -135.97 0 67.988 67.988 0 1 1 135.97 0z" fill="#fff" stroke="#000" stroke-linecap="round" stroke-linejoin="round" stroke-width="9.931" transform="matrix(.40278 0 0 .40278 158.81 226.93)"/><path d="m403.52 522.31a67.988 67.988 0 1 1 -135.97 0 67.988 67.988 0 1 1 135.97 0z" fill="#fff" stroke="#000" stroke-linecap="round" stroke-linejoin="round" stroke-width="9.931" transform="matrix(.40278 0 0 .40278 222.39 226.93)"/><path d="m403.52 522.31a67.988 67.988 0 1 1 -135.97 0 67.988 67.988 0 1 1 135.97 0z" transform="matrix(.125 0 0 .125 260.2 375.16)"/><path d="m403.52 522.31a67.988 67.988 0 1 1 -135.97 0 67.988 67.988 0 1 1 135.97 0z" transform="matrix(.125 0 0 .125 306.78 375.16)"/><path d="m390.97 575.03c4.72 6.48 7.53 14.47 7.53 23.09 0 12.47-5.84 23.56-14.91 30.76 15.09-.58 25.91-3.7 25.91-20.63 0-14.03-7.41-26.34-18.53-33.22z" fill-opacity=".31373"/><g fill="none" stroke="#000" stroke-linecap="round" stroke-width="4" transform="translate(-.14728 -2.8284)"><path d="m357.34 628.69c-3.5-11.33.5-24.55.5-24.55"/><path d="m375.37 631.21c4.29-18.25-.62-32.73-.62-32.73"/><path d="m393.62 629.32c8.81-13.85 1.26-25.18 1.26-25.18"/></g><path d="m300.47 575.03c4.72 6.48 7.53 14.47 7.53 23.09 0 12.47-5.84 23.56-14.91 30.76 15.09-.58 25.91-3.7 25.91-20.63 0-14.03-7.41-26.34-18.53-33.22z" fill-opacity=".31373"/><path d="m336.66 588.75c-3.32 5.73-5.22 12.41-5.22 19.5 0 17.51 11.55 20.26 27.44 20.69-15.78-6.58-23.81-22.21-22.22-40.19z" fill-opacity=".31373"/><path d="m353.8 498.29a27.384 27.384 0 0 1 -54.768 0 27.384 27.384 0 1 1 54.768 0z" fill="#ff8080" stroke="#000" stroke-linecap="round" stroke-linejoin="round" stroke-width="4"/><path d="m322.92 497.17a8.4985 8.4985 0 1 1 -16.997 0 8.4985 8.4985 0 1 1 16.997 0z"/><path d="m346.4 496.54a8.4985 8.4985 0 1 1 -16.997 0 8.4985 8.4985 0 1 1 16.997 0z"/></g></svg>